# xmcd CD database file
#
# Track frame offsets:
#	150
#	12150
#	22562
#	34775
#	47052
#	59190
#	70595
#	80090
#	92405
#	105105
#	116892
#	127460
#	139655
#	149642
#	161395
#	175952
#	185877
#	199765
#	211865
#	223097
#	235792
#	247120
#	260990
#	271692
#	281375
#	296472
#
# Disc length: 4132 seconds
#
# Revision: 5
# Processed by: cddbd v1.5.2PL0 Copyright (c) Steve Scherf et al.
# Submitted via: CDex 1.77
#
DISCID=8a10221a
DTITLE=Hank Snow - I'm Movin' On 1949-1953 Vol. 3
DYEAR=1988
DGENRE=Country
TTITLE0=The Gal Who Invented Kissin'
TTITLE1=Spanish Fire Ball
TTITLE2=Honeymoon On A Rocket Ship
TTITLE3=Between Fire And Water
TTITLE4=The Boogie Woogie Flying Cloud
TTITLE5=I Can't Control My Heart
TTITLE6=For Now And Always
TTITLE7=A Message From The Tradewinds
TTITLE8=I Traded Love
TTITLE9=The Next Voice You Hear
TTITLE10=When Mexican Joe Met Jole Blon
TTITLE11=I Went To Your Wedding
TTITLE12=Jimmie The Kid
TTITLE13=My Blue Eyed Jane
TTITLE14=When Jimmie Rodgers Said Goodbye (with Jimmie Rodgers Snow)
TTITLE15=Southern Cannonball
TTITLE16=Anniversary Blue Yodel (Blue Yodel No. 7)
TTITLE17=Why Did You Give Me Your Love
TTITLE18=Mississippi River Blues
TTITLE19=In Daddy's Footsteps
TTITLE20=The Gloryland March
TTITLE21=Christmas Roses
TTITLE22=The Reindeer Boogie
TTITLE23=Frosty The Snowman
TTITLE24=Silent Night
TTITLE25=My Mother
EXTD=YEAR: 1988
EXTT0=
EXTT1=
EXTT2=
EXTT3=
EXTT4=
EXTT5=
EXTT6=
EXTT7=
EXTT8=
EXTT9=
EXTT10=
EXTT11=
EXTT12=
EXTT13=
EXTT14=
EXTT15=
EXTT16=
EXTT17=
EXTT18=
EXTT19=
EXTT20=
EXTT21=
EXTT22=
EXTT23=
EXTT24=
EXTT25=
PLAYORDER=
